<mxfile host="app.diagrams.net" modified="2023-10-04T14:51:23.265Z" agent="Mozilla/5.0 (X11; Ubuntu; Linux x86_64; rv:109.0) Gecko/20100101 Firefox/118.0" etag="PwC47NFaadUf7F1ujJH_" version="22.0.2" type="device">
  <diagram name="PÃ¡gina-1" id="Dt6Ews74WC8n_NmDGH7-">
    <mxGraphModel dx="880" dy="347" grid="1" gridSize="10" guides="1" tooltips="1" connect="1" arrows="1" fold="1" page="1" pageScale="1" pageWidth="827" pageHeight="1169" math="0" shadow="0">
      <root>
        <mxCell id="0" />
        <mxCell id="1" parent="0" />
        <mxCell id="X6Yhqcx2zlMOQzeE7v-C-1" value="MailClient" style="swimlane;fontStyle=1;align=center;verticalAlign=top;childLayout=stackLayout;horizontal=1;startSize=26;horizontalStack=0;resizeParent=1;resizeParentMax=0;resizeLast=0;collapsible=1;marginBottom=0;whiteSpace=wrap;html=1;" vertex="1" parent="1">
          <mxGeometry x="440" y="280" width="220" height="200" as="geometry" />
        </mxCell>
        <mxCell id="X6Yhqcx2zlMOQzeE7v-C-2" value="&lt;div&gt;-server: MailServer&lt;/div&gt;&lt;div&gt;-user: String&lt;br&gt;&lt;/div&gt;" style="text;strokeColor=none;fillColor=none;align=left;verticalAlign=top;spacingLeft=4;spacingRight=4;overflow=hidden;rotatable=0;points=[[0,0.5],[1,0.5]];portConstraint=eastwest;whiteSpace=wrap;html=1;" vertex="1" parent="X6Yhqcx2zlMOQzeE7v-C-1">
          <mxGeometry y="26" width="220" height="44" as="geometry" />
        </mxCell>
        <mxCell id="X6Yhqcx2zlMOQzeE7v-C-3" value="" style="line;strokeWidth=1;fillColor=none;align=left;verticalAlign=middle;spacingTop=-1;spacingLeft=3;spacingRight=3;rotatable=0;labelPosition=right;points=[];portConstraint=eastwest;strokeColor=inherit;" vertex="1" parent="X6Yhqcx2zlMOQzeE7v-C-1">
          <mxGeometry y="70" width="220" height="8" as="geometry" />
        </mxCell>
        <mxCell id="X6Yhqcx2zlMOQzeE7v-C-4" value="&lt;div&gt;+MailClient(MailServer,String)&lt;/div&gt;&lt;div&gt;+getNextMailItem():MailItem&lt;/div&gt;&lt;div&gt;+printNextMailItem():void&lt;/div&gt;&lt;div&gt;+sendMailItem(String,String): void&lt;br&gt;&lt;/div&gt;" style="text;strokeColor=none;fillColor=none;align=left;verticalAlign=top;spacingLeft=4;spacingRight=4;overflow=hidden;rotatable=0;points=[[0,0.5],[1,0.5]];portConstraint=eastwest;whiteSpace=wrap;html=1;" vertex="1" parent="X6Yhqcx2zlMOQzeE7v-C-1">
          <mxGeometry y="78" width="220" height="122" as="geometry" />
        </mxCell>
        <mxCell id="X6Yhqcx2zlMOQzeE7v-C-5" value="MailItem" style="swimlane;fontStyle=1;align=center;verticalAlign=top;childLayout=stackLayout;horizontal=1;startSize=26;horizontalStack=0;resizeParent=1;resizeParentMax=0;resizeLast=0;collapsible=1;marginBottom=0;whiteSpace=wrap;html=1;" vertex="1" parent="1">
          <mxGeometry x="430" y="40" width="190" height="200" as="geometry" />
        </mxCell>
        <mxCell id="X6Yhqcx2zlMOQzeE7v-C-6" value="&lt;div&gt;-from: Sring&lt;/div&gt;&lt;div&gt;- to: String&lt;/div&gt;&lt;div&gt;-message: String&lt;br&gt;&lt;/div&gt;" style="text;strokeColor=none;fillColor=none;align=left;verticalAlign=top;spacingLeft=4;spacingRight=4;overflow=hidden;rotatable=0;points=[[0,0.5],[1,0.5]];portConstraint=eastwest;whiteSpace=wrap;html=1;" vertex="1" parent="X6Yhqcx2zlMOQzeE7v-C-5">
          <mxGeometry y="26" width="190" height="64" as="geometry" />
        </mxCell>
        <mxCell id="X6Yhqcx2zlMOQzeE7v-C-7" value="" style="line;strokeWidth=1;fillColor=none;align=left;verticalAlign=middle;spacingTop=-1;spacingLeft=3;spacingRight=3;rotatable=0;labelPosition=right;points=[];portConstraint=eastwest;strokeColor=inherit;" vertex="1" parent="X6Yhqcx2zlMOQzeE7v-C-5">
          <mxGeometry y="90" width="190" height="8" as="geometry" />
        </mxCell>
        <mxCell id="X6Yhqcx2zlMOQzeE7v-C-8" value="&lt;div&gt;+MailItem(String,String,String)&lt;/div&gt;&lt;div&gt;+getFrom():String&lt;/div&gt;&lt;div&gt;+getTo():String&lt;/div&gt;&lt;div&gt;+getMessage():String&lt;/div&gt;&lt;div&gt;+print(): void&lt;br&gt;&lt;/div&gt;" style="text;strokeColor=none;fillColor=none;align=left;verticalAlign=top;spacingLeft=4;spacingRight=4;overflow=hidden;rotatable=0;points=[[0,0.5],[1,0.5]];portConstraint=eastwest;whiteSpace=wrap;html=1;" vertex="1" parent="X6Yhqcx2zlMOQzeE7v-C-5">
          <mxGeometry y="98" width="190" height="102" as="geometry" />
        </mxCell>
        <mxCell id="X6Yhqcx2zlMOQzeE7v-C-9" value="MailServer" style="swimlane;fontStyle=1;align=center;verticalAlign=top;childLayout=stackLayout;horizontal=1;startSize=26;horizontalStack=0;resizeParent=1;resizeParentMax=0;resizeLast=0;collapsible=1;marginBottom=0;whiteSpace=wrap;html=1;" vertex="1" parent="1">
          <mxGeometry x="70" y="295" width="210" height="170" as="geometry" />
        </mxCell>
        <mxCell id="X6Yhqcx2zlMOQzeE7v-C-10" value="-items: List&amp;lt;MailIetm&amp;gt;" style="text;strokeColor=none;fillColor=none;align=left;verticalAlign=top;spacingLeft=4;spacingRight=4;overflow=hidden;rotatable=0;points=[[0,0.5],[1,0.5]];portConstraint=eastwest;whiteSpace=wrap;html=1;" vertex="1" parent="X6Yhqcx2zlMOQzeE7v-C-9">
          <mxGeometry y="26" width="210" height="26" as="geometry" />
        </mxCell>
        <mxCell id="X6Yhqcx2zlMOQzeE7v-C-11" value="" style="line;strokeWidth=1;fillColor=none;align=left;verticalAlign=middle;spacingTop=-1;spacingLeft=3;spacingRight=3;rotatable=0;labelPosition=right;points=[];portConstraint=eastwest;strokeColor=inherit;" vertex="1" parent="X6Yhqcx2zlMOQzeE7v-C-9">
          <mxGeometry y="52" width="210" height="8" as="geometry" />
        </mxCell>
        <mxCell id="X6Yhqcx2zlMOQzeE7v-C-12" value="&lt;div&gt;+MailServer()&lt;/div&gt;&lt;div&gt;+howManyMailItems(String): int&lt;/div&gt;&lt;div&gt;+getNextMailItem(String):MailItem&lt;/div&gt;&lt;div&gt;+post(MailItem):void&lt;br&gt;&lt;/div&gt;&amp;nbsp;" style="text;strokeColor=none;fillColor=none;align=left;verticalAlign=top;spacingLeft=4;spacingRight=4;overflow=hidden;rotatable=0;points=[[0,0.5],[1,0.5]];portConstraint=eastwest;whiteSpace=wrap;html=1;" vertex="1" parent="X6Yhqcx2zlMOQzeE7v-C-9">
          <mxGeometry y="60" width="210" height="110" as="geometry" />
        </mxCell>
        <mxCell id="X6Yhqcx2zlMOQzeE7v-C-13" value="DemoMail" style="swimlane;fontStyle=1;align=center;verticalAlign=top;childLayout=stackLayout;horizontal=1;startSize=26;horizontalStack=0;resizeParent=1;resizeParentMax=0;resizeLast=0;collapsible=1;marginBottom=0;whiteSpace=wrap;html=1;" vertex="1" parent="1">
          <mxGeometry x="55" y="120" width="160" height="60" as="geometry" />
        </mxCell>
        <mxCell id="X6Yhqcx2zlMOQzeE7v-C-15" value="" style="line;strokeWidth=1;fillColor=none;align=left;verticalAlign=middle;spacingTop=-1;spacingLeft=3;spacingRight=3;rotatable=0;labelPosition=right;points=[];portConstraint=eastwest;strokeColor=inherit;" vertex="1" parent="X6Yhqcx2zlMOQzeE7v-C-13">
          <mxGeometry y="26" width="160" height="8" as="geometry" />
        </mxCell>
        <mxCell id="X6Yhqcx2zlMOQzeE7v-C-17" value="Use" style="endArrow=open;endSize=12;dashed=1;html=1;rounded=0;entryX=0.053;entryY=1.016;entryDx=0;entryDy=0;entryPerimeter=0;" edge="1" parent="X6Yhqcx2zlMOQzeE7v-C-13" target="X6Yhqcx2zlMOQzeE7v-C-6">
          <mxGeometry width="160" relative="1" as="geometry">
            <mxPoint x="145" y="29.5" as="sourcePoint" />
            <mxPoint x="305" y="29.5" as="targetPoint" />
          </mxGeometry>
        </mxCell>
        <mxCell id="X6Yhqcx2zlMOQzeE7v-C-16" value="+main(String[]) : void" style="text;strokeColor=none;fillColor=none;align=left;verticalAlign=top;spacingLeft=4;spacingRight=4;overflow=hidden;rotatable=0;points=[[0,0.5],[1,0.5]];portConstraint=eastwest;whiteSpace=wrap;html=1;" vertex="1" parent="X6Yhqcx2zlMOQzeE7v-C-13">
          <mxGeometry y="34" width="160" height="26" as="geometry" />
        </mxCell>
        <mxCell id="X6Yhqcx2zlMOQzeE7v-C-18" value="Use" style="endArrow=open;endSize=12;dashed=1;html=1;rounded=0;entryX=0.25;entryY=0;entryDx=0;entryDy=0;exitX=0.275;exitY=1.038;exitDx=0;exitDy=0;exitPerimeter=0;" edge="1" parent="1" source="X6Yhqcx2zlMOQzeE7v-C-16" target="X6Yhqcx2zlMOQzeE7v-C-9">
          <mxGeometry width="160" relative="1" as="geometry">
            <mxPoint x="110" y="190" as="sourcePoint" />
            <mxPoint x="540" y="310" as="targetPoint" />
          </mxGeometry>
        </mxCell>
        <mxCell id="X6Yhqcx2zlMOQzeE7v-C-19" value="Use" style="endArrow=open;endSize=12;dashed=1;html=1;rounded=0;exitX=0.906;exitY=1;exitDx=0;exitDy=0;exitPerimeter=0;entryX=0;entryY=0;entryDx=0;entryDy=0;" edge="1" parent="1" source="X6Yhqcx2zlMOQzeE7v-C-16" target="X6Yhqcx2zlMOQzeE7v-C-1">
          <mxGeometry width="160" relative="1" as="geometry">
            <mxPoint x="380" y="310" as="sourcePoint" />
            <mxPoint x="540" y="310" as="targetPoint" />
          </mxGeometry>
        </mxCell>
        <mxCell id="X6Yhqcx2zlMOQzeE7v-C-20" value="Use" style="endArrow=open;endSize=12;dashed=1;html=1;rounded=0;exitX=0.995;exitY=0.269;exitDx=0;exitDy=0;exitPerimeter=0;entryX=-0.016;entryY=0.186;entryDx=0;entryDy=0;entryPerimeter=0;" edge="1" parent="1" source="X6Yhqcx2zlMOQzeE7v-C-10" target="X6Yhqcx2zlMOQzeE7v-C-8">
          <mxGeometry width="160" relative="1" as="geometry">
            <mxPoint x="380" y="340" as="sourcePoint" />
            <mxPoint x="540" y="340" as="targetPoint" />
          </mxGeometry>
        </mxCell>
        <mxCell id="X6Yhqcx2zlMOQzeE7v-C-21" value="Use" style="endArrow=open;endSize=12;dashed=1;html=1;rounded=0;entryX=1.014;entryY=1;entryDx=0;entryDy=0;entryPerimeter=0;" edge="1" parent="1" source="X6Yhqcx2zlMOQzeE7v-C-2" target="X6Yhqcx2zlMOQzeE7v-C-10">
          <mxGeometry width="160" relative="1" as="geometry">
            <mxPoint x="380" y="310" as="sourcePoint" />
            <mxPoint x="540" y="310" as="targetPoint" />
          </mxGeometry>
        </mxCell>
      </root>
    </mxGraphModel>
  </diagram>
</mxfile>
